<?xml version="1.0" encoding="UTF-8" standalone="no"?>
<!-- Created with Inkscape (http://www.inkscape.org/) -->

<svg
   width="256"
   height="256"
   viewBox="0 0 67.733332 67.733333"
   version="1.1"
   id="svg5"
   inkscape:version="1.4.4 (dcaf3e7d9e, 2026-05-05)"
   sodipodi:docname="BT logo v2.svg"
   inkscape:export-filename="BT logo v2.1 x512.png"
   inkscape:export-xdpi="48"
   inkscape:export-ydpi="48"
   xmlns:inkscape="http://www.inkscape.org/namespaces/inkscape"
   xmlns:sodipodi="http://sodipodi.sourceforge.net/DTD/sodipodi-0.dtd"
   xmlns:xlink="http://www.w3.org/1999/xlink"
   xmlns="http://www.w3.org/2000/svg"
   xmlns:svg="http://www.w3.org/2000/svg">
  <sodipodi:namedview
     id="namedview7"
     pagecolor="#ffffff"
     bordercolor="#000000"
     borderopacity="0.25"
     inkscape:showpageshadow="2"
     inkscape:pageopacity="0.0"
     inkscape:pagecheckerboard="0"
     inkscape:deskcolor="#d1d1d1"
     inkscape:document-units="px"
     showgrid="false"
     inkscape:zoom="4"
     inkscape:cx="100.875"
     inkscape:cy="138.5"
     inkscape:window-width="2560"
     inkscape:window-height="1375"
     inkscape:window-x="0"
     inkscape:window-y="0"
     inkscape:window-maximized="1"
     inkscape:current-layer="svg5" />
  <defs
     id="defs2">
    <inkscape:path-effect
       effect="offset"
       id="path-effect2"
       is_visible="true"
       lpeversion="1.3"
       linejoin_type="miter"
       unit="px"
       offset="2"
       miter_limit="4"
       attempt_force_join="false"
       update_on_knot_move="true" />
    <inkscape:path-effect
       effect="offset"
       id="path-effect12865"
       is_visible="true"
       lpeversion="1.3"
       linejoin_type="miter"
       unit="px"
       offset="1"
       miter_limit="4"
       attempt_force_join="false"
       update_on_knot_move="true" />
    <inkscape:path-effect
       effect="offset"
       id="path-effect12853"
       is_visible="true"
       lpeversion="1.3"
       linejoin_type="miter"
       unit="px"
       offset="2.5"
       miter_limit="4"
       attempt_force_join="false"
       update_on_knot_move="true" />
    <inkscape:path-effect
       effect="offset"
       id="path-effect12851"
       is_visible="false"
       lpeversion="1.2"
       linejoin_type="miter"
       unit="px"
       offset="2"
       miter_limit="4"
       attempt_force_join="false"
       update_on_knot_move="false" />
    <linearGradient
       inkscape:collect="always"
       id="linearGradient12842">
      <stop
         style="stop-color:#000000;stop-opacity:0;"
         offset="0.41369894"
         id="stop12840" />
      <stop
         style="stop-color:#000000;stop-opacity:1;"
         offset="0.81614357"
         id="stop12838" />
    </linearGradient>
    <linearGradient
       inkscape:collect="always"
       id="linearGradient12761">
      <stop
         style="stop-color:#ffcb66;stop-opacity:1;"
         offset="0"
         id="stop12753" />
      <stop
         style="stop-color:#da91ca;stop-opacity:1;"
         offset="0.26890466"
         id="stop12755" />
      <stop
         style="stop-color:#8a62e6;stop-opacity:1;"
         offset="0.66488838"
         id="stop12757" />
      <stop
         style="stop-color:#ff835c;stop-opacity:1;"
         offset="1"
         id="stop12759" />
    </linearGradient>
    <linearGradient
       inkscape:collect="always"
       id="linearGradient8772">
      <stop
         style="stop-color:#00c4ff;stop-opacity:1;"
         offset="0"
         id="stop8768" />
      <stop
         style="stop-color:#00da78;stop-opacity:1;"
         offset="0.27181503"
         id="stop8776" />
      <stop
         style="stop-color:#0085e6;stop-opacity:1;"
         offset="0.66488838"
         id="stop8778" />
      <stop
         style="stop-color:#00ff77;stop-opacity:1;"
         offset="1"
         id="stop8770" />
    </linearGradient>
    <linearGradient
       inkscape:collect="always"
       xlink:href="#linearGradient8772"
       id="linearGradient8774"
       x1="-8.7667179"
       y1="55.441757"
       x2="70.713936"
       y2="13.135854"
       gradientUnits="userSpaceOnUse" />
    <linearGradient
       inkscape:collect="always"
       xlink:href="#linearGradient12761"
       id="linearGradient12743"
       x1="14.480599"
       y1="14.081756"
       x2="81.816872"
       y2="-17.250399"
       gradientUnits="userSpaceOnUse"
       gradientTransform="matrix(0.92438837,0,0,0.92438837,3.6860277,-0.00955466)" />
    <radialGradient
       inkscape:collect="always"
       xlink:href="#linearGradient12842"
       id="radialGradient12844"
       cx="33.866665"
       cy="33.866665"
       fx="33.866665"
       fy="33.866665"
       r="33.866665"
       gradientUnits="userSpaceOnUse"
       gradientTransform="matrix(2.0040019,0,0,2.0040019,-34.002197,-34.002197)" />
    <filter
       inkscape:collect="always"
       style="color-interpolation-filters:sRGB"
       id="filter2"
       x="-0.021501378"
       y="-0.021603381"
       width="1.0430083"
       height="1.0431124">
      <feGaussianBlur
         inkscape:collect="always"
         stdDeviation="0.13064048"
         id="feGaussianBlur2" />
    </filter>
  </defs>
  <rect
     style="fill:url(#linearGradient8774);fill-opacity:1;stroke:none;stroke-width:4.05022;stroke-linejoin:bevel;stroke-dasharray:none;stroke-opacity:1"
     id="rect8671"
     width="67.73333"
     height="67.73333"
     x="-3.5527137e-15"
     y="0"
     ry="0.028414551" />
  <rect
     style="display:inline;fill:url(#radialGradient12844);fill-opacity:1;stroke:none;stroke-width:4.05022;stroke-linejoin:bevel;stroke-dasharray:none;stroke-opacity:1"
     id="rect12834"
     width="67.73333"
     height="67.73333"
     x="-3.5527137e-15"
     y="0"
     ry="0.028414551" />
  <path
     style="color:#000000;fill:#ffffff;stroke:#e0fbff;stroke-width:2.38124997;stroke-linejoin:bevel;stroke-dasharray:none;stroke-opacity:1;fill-opacity:1;filter:url(#filter2)"
     d="m 44.330078,-34.939453 c -0.370205,0 -0.739776,0.142092 -1.019531,0.421875 l -5.316406,5.318359 c -0.915432,0.917874 -0.246886,2.483234 1.048828,2.457032 l 19.878906,-0.392579 c 1.26611,-0.02785 1.882786,-1.559296 0.988281,-2.457031 L 55,-34.501953 c -0.562274,-0.560566 -1.472061,-0.560796 -2.035156,0 l -3.800782,3.800781 -3.814453,-3.816406 c -0.279773,-0.279801 -0.649326,-0.421875 -1.019531,-0.421875 z m 0,3.478516 1.699219,1.699218 -3.464844,0.06836 z m 9.652344,0.01758 1.496094,1.496093 -3.050782,0.06055 z m -27.164063,8.835937 c -0.40037,0 -0.763824,0.17272 -1.023437,0.431641 -0.260548,0.259857 -0.433594,0.622087 -0.433594,1.023437 v 42.285156 c 0,0.789998 0.668395,1.455079 1.457031,1.455079 h 42.283203 c 0.788635,0 1.455079,-0.666443 1.455079,-1.455079 v -42.283203 c 0,-0.788635 -0.66508,-1.457031 -1.455079,-1.457031 z m 1.425782,2.882813 H 67.673828 V 19.705078 H 28.244141 Z M 31.5,-17.988281 c -0.418968,0 -0.797307,0.180119 -1.068359,0.451172 -0.271053,0.271052 -0.451172,0.649391 -0.451172,1.068359 v 32.917969 c 0,0.82287 0.696661,1.519531 1.519531,1.519531 h 32.917969 c 0.822869,0 1.519531,-0.69666 1.519531,-1.519531 V -16.46875 c 0,-0.822871 -0.696662,-1.519531 -1.519531,-1.519531 z m 1.496094,3.015625 H 62.921875 V 14.953125 H 32.996094 Z m 14.96289,2.351562 c -3.231541,-3.52e-4 -6.462891,1.228516 -8.921875,3.6875002 -4.920426,4.920426 -4.920426,12.9272284 0,17.8476563 4.920426,4.9204285 12.92538,4.9183695 17.845703,-0.00195 4.920323,-4.9203232 4.920325,-12.9234256 0,-17.84375 -2.459018,-2.4590194 -5.692218,-3.6891004 -8.923828,-3.6894534 z m -27.707031,0.828125 c -0.346251,0.01067 -0.692947,0.146547 -0.96875,0.421875 l -4.90625,4.9101565 c -0.563063,0.5624185 -0.564714,1.4769458 -0.002,2.0390625 l 3.796875,3.79882813 -3.816406,3.81835937 c -0.561035,0.5627904 -0.559683,1.4742072 0.002,2.0351562 l 5.318359,5.3164063 C 20.592453,11.461914 22.156054,10.79563 22.132812,9.5 l -0.390625,-19.876953 c -0.01573,-0.856454 -0.727807,-1.439506 -1.490234,-1.416016 z m 56.714844,0.664063 c -0.209243,-0.0096 -0.420912,0.02826 -0.621094,0.113281 -0.171645,0.07276 -0.331872,0.180351 -0.464844,0.316406 -0.26761,0.274142 -0.411423,0.639859 -0.404297,1.0214846 l 0.384766,19.5722657 c 0.02553,1.2557737 1.546598,1.8657617 2.435547,0.9785157 l 4.832031,-4.8320314 c 0.557042,-0.5571538 0.557507,-1.4625037 0,-2.0195312 l -3.734375,-3.7324219 3.75,-3.75 c 0.557042,-0.5571538 0.557418,-1.4625926 0,-2.0195312 l -5.232422,-5.2324223 c -0.257034,-0.257147 -0.596739,-0.400071 -0.945312,-0.416015 z m -29.007813,1.5117185 c 2.45575,3.2e-4 4.907247,0.9384977 6.789063,2.8203125 3.763619,3.76362 3.763618,9.8125532 0,13.5761719 -3.763558,3.7635571 -9.814566,3.7635581 -13.578125,0 -3.763556,-3.7635578 -3.763556,-9.8145686 0,-13.578125 1.881736,-1.881735 4.33323,-2.8186794 6.789062,-2.8183594 z m -29.03125,2.6796875 0.06055,3.0527344 -1.55664,-1.5566406 z m 59.46875,0.7480469 1.720703,1.71875 -1.654296,1.6542968 z M 19.113281,2.515625 19.181641,5.9785156 17.416016,4.2128906 Z M 78.587891,3.5195313 80.099609,5.03125 78.646484,6.484375 Z M 58.21875,26.601562 38.648437,26.984375 c -0.375557,0.0074 -0.732856,0.163481 -0.99414,0.431641 -0.129829,0.133316 -0.231541,0.290935 -0.300781,0.46289 -0.214178,0.532164 -0.09099,1.138869 0.314453,1.542969 l 4.833984,4.832031 c 0.557435,0.555502 1.459992,0.554204 2.015625,-0.002 l 3.734375,-3.734375 3.751953,3.751953 c 0.556492,0.556379 1.461049,0.556417 2.017578,0 l 5.234375,-5.236328 c 0.904882,-0.907667 0.244549,-2.455734 -1.037109,-2.431641 z m -3.486328,2.921875 -1.71875,1.716797 -1.652344,-1.65039 z m -9.710938,0.189454 -1.511718,1.511718 -1.453125,-1.453125 z"
     id="path1"
     inkscape:path-effect="#path-effect2"
     inkscape:original-d="m 26.168565,-21.800995 c -0.169795,0.169345 -0.277315,0.400733 -0.277315,0.649549 l -4e-6,42.283787 c 0,0.497629 0.430247,0.92585 0.927878,0.92585 l 42.281761,3e-6 c 0.497629,0 0.926188,-0.428558 0.926188,-0.926188 l 4e-6,-42.283112 c 0,-0.49763 -0.428559,-0.926188 -0.926189,-0.926188 l -42.281761,-3e-6 c -0.248815,0 -0.480765,0.106958 -0.650562,0.276302 z m 1.54635,1.547026 40.488833,3e-6 -3e-6,40.488832 -40.488832,-3e-6 z M 14.749287,-6.0865267 a 0.91139019,0.91139019 45 0 0 0,1.2896382 l 4.173253,4.1732536 -4.191156,4.1911552 a 0.91139019,0.91139019 45 0 0 0.0014,1.2882872 l 5.315958,5.3159585 A 0.91139019,0.91139019 45 0 0 21.603861,9.5103958 L 21.213016,-10.366855 a 0.91139019,0.91139019 45 0 0 -1.555131,-0.628269 z m 23.6195,-22.7405983 a 0.91139019,0.91139019 45 0 0 0.663735,1.554795 l 19.877251,-0.390808 a 0.91139019,0.91139019 45 0 0 0.625566,-1.554457 l -4.908934,-4.908935 a 0.91139019,0.91139019 45 0 0 -1.286599,-3.38e-4 l -4.174942,4.174942 -4.191155,-4.191156 a 0.91139019,0.91139019 45 0 0 -1.288963,0 z m -21.687745,23.3854175 2.752557,-2.7525567 0.109778,5.6148918 z m 24.577778,-23.6968485 3.071758,-3.071757 2.952859,2.95286 z m -10.452894,11.975598 c -0.181334,0.181334 -0.296231,0.428957 -0.296231,0.694811 l -3e-6,32.917189 c 0,0.531707 0.459336,0.991042 0.991042,0.991042 l 32.91719,3e-6 c 0.531705,0 0.991042,-0.459336 0.991042,-0.991043 l 2e-6,-32.917189 c 0,-0.531707 -0.459336,-0.991043 -0.991042,-0.991043 l -32.917189,-2e-6 c -0.265854,0 -0.513477,0.114898 -0.694811,0.296232 z m 1.660857,1.660857 30.985097,2e-6 -3e-6,30.985097 -30.985096,-2e-6 z M 16.665842,4.2123396 19.618702,1.2594803 19.73591,7.2824086 Z m 34.456448,-33.5451176 2.860984,-2.860984 2.751206,2.751206 z M 39.411508,-8.5580502 c -4.712559,4.712559 -4.71256,12.3844351 0,17.0969961 4.712559,4.7125611 12.383085,4.7112091 17.095645,-0.00135 4.712559,-4.7125598 4.712561,-12.3817329 0,-17.094294 -4.712559,-4.7125609 -12.383084,-4.7139119 -17.095645,-0.00135 z m 1.383878,1.3838785 c 3.964841,-3.9648393 10.363049,-3.9634883 14.327889,0.00135 3.96484,3.9648406 3.964838,10.3616977 -10e-7,14.3265371 -3.96484,3.9648386 -10.363048,3.9661906 -14.327889,0.00135 -3.964838,-3.9648399 -3.964837,-10.3644005 10e-7,-14.3292392 z M 38.033369,27.785564 a 0.89719473,0.89719473 45 0 0 -0.189493,0.290827 0.89719473,0.89719473 45 0 0 0.198952,0.970438 l 4.832258,4.83226 a 0.89719473,0.89719473 45 0 0 1.268021,-0.0014 l 4.109413,-4.109413 4.125964,4.125965 a 0.89719473,0.89719473 45 0 0 1.268696,0 l 5.233203,-5.233202 a 0.89719473,0.89719473 45 0 0 -0.65225,-1.530473 L 38.65826,27.51463 a 0.89719473,0.89719473 45 0 0 -0.624891,0.270899 z M 76.26044,-10.330034 a 0.89719473,0.89719473 45 0 0 -0.255023,0.6434679 L 76.39082,9.8819556 A 0.89719473,0.89719473 45 0 0 77.921633,10.49874 L 82.753892,5.6664807 A 0.89719473,0.89719473 45 0 0 82.753555,4.3974468 L 78.645493,0.28938454 82.770444,-3.8355661 a 0.89719473,0.89719473 45 0 0 -3.37e-4,-1.2690338 l -5.232865,-5.2328651 a 0.89719473,0.89719473 45 0 0 -0.9853,-0.19152 0.89719473,0.89719473 45 0 0 -0.291502,0.198951 z m -35.458638,39.597771 5.52403,-0.108765 -2.816398,2.816397 z m 37.040454,-36.7621201 3.024469,3.0244688 -2.906923,2.9069216 z M 50.106248,29.083986 56.036288,28.96779 53.01317,31.990907 Z M 78.033776,2.2157353 80.850173,5.0321326 78.14254,7.7397647 Z"
     transform="rotate(44.999996)"
     inkscape:label="white_outline" />
  <path
     style="color:#000000;display:inline;fill:url(#linearGradient12743);stroke:#000000;stroke-width:0.52916666;stroke-linejoin:bevel;stroke-dasharray:none;stroke-opacity:1"
     d="m 44.330078,-35.072266 c -0.405787,0 -0.805111,0.156645 -1.111328,0.462891 l -5.318359,5.316406 c -0.998781,1.001446 -0.267146,2.712181 1.146484,2.683594 l 19.876953,-0.392578 c 1.383041,-0.03043 2.057294,-1.700896 1.080078,-2.681641 l -4.910156,-4.912109 c -0.613258,-0.611395 -1.606466,-0.609777 -2.220703,0.002 l -3.708985,3.707031 -3.722656,-3.722656 c -0.306239,-0.306269 -0.705541,-0.462891 -1.111328,-0.462891 z m 0.002,3.796875 1.386719,1.386719 -2.830078,0.05469 z m 9.650391,0.01758 1.183594,1.183593 -2.414063,0.04687 z m -27.164063,8.517578 c -0.438502,0 -0.834954,0.189222 -1.117187,0.470703 -0.283231,0.28248 -0.472656,0.677711 -0.472656,1.117187 v 42.285156 c 0,0.865033 0.726512,1.587891 1.589843,1.587891 h 42.283203 c 0.863331,0 1.587891,-0.724559 1.587891,-1.587891 v -42.283203 c 0,-0.86333 -0.722856,-1.589843 -1.587891,-1.589843 z m 1.558594,3.148437 H 67.541016 V 19.572266 H 28.376953 Z M 31.5,-18.121094 c -0.457279,0 -0.866652,0.198684 -1.160156,0.492188 -0.293504,0.293504 -0.492188,0.702877 -0.492188,1.160156 v 32.917969 c 0,0.897738 0.754607,1.652343 1.652344,1.652343 h 32.917969 c 0.897737,0 1.652344,-0.754604 1.652343,-1.652343 V -16.46875 c 0,-0.897739 -0.754606,-1.652344 -1.652343,-1.652344 z m 1.628906,3.28125 H 62.789062 V 14.820313 H 33.128906 Z m 14.830078,2.085938 c -3.266699,-3.57e-4 -6.528087,1.242931 -9.013672,3.7285154 -4.971242,4.9712421 -4.971243,13.0600059 0,18.03125 4.971243,4.9712446 13.058184,4.9691596 18.029297,-0.00195 4.971113,-4.9711135 4.971115,-13.0562291 0,-18.0273438 -2.485628,-2.4856295 -5.748839,-3.7301125 -9.015625,-3.7304685 z m -27.710937,0.828125 c -0.384063,0.01183 -0.754361,0.159181 -1.058594,0.46289 l -4.90625,4.9082035 c -0.614029,0.6133268 -0.615605,1.6116598 -0.002,2.2246094 l 3.707031,3.70703123 -3.726562,3.72460937 c -0.611819,0.6137332 -0.608469,1.6090769 0.0039,2.2207031 l 5.316406,5.3183594 c 1.000153,0.998371 2.708954,0.269188 2.683594,-1.1445312 L 21.875,-10.378906 c -0.01709,-0.930324 -0.793975,-1.572539 -1.626953,-1.546875 z m 56.552734,0.666015 c -0.171812,0.01102 -0.341321,0.05121 -0.505859,0.121094 -0.187425,0.07944 -0.362195,0.196709 -0.507813,0.345703 -0.292435,0.299574 -0.451142,0.702334 -0.443359,1.1191409 l 0.384766,19.5703125 c 0.02786,1.3704326 1.690051,2.0366046 2.660156,1.0683596 l 4.832031,-4.8320315 c 0.608012,-0.6081343 0.608547,-1.5970547 0,-2.2050781 l -3.640625,-3.64062502 3.65625,-3.65624998 c 0.608012,-0.6081344 0.608436,-1.5952127 0,-2.203125 l -5.230469,-5.2324224 c -0.280798,-0.280921 -0.652387,-0.437659 -1.033203,-0.455078 -0.05736,-0.0026 -0.114604,-0.0037 -0.171875,0 z m -28.841797,1.775391 c 2.421997,3.156e-4 4.840602,0.9226332 6.697266,2.7792969 3.713314,3.7133148 3.713313,9.6792645 0,13.3925781 -3.713238,3.713236 -9.681293,3.713238 -13.394531,0 -3.713236,-3.7132372 -3.713235,-9.6812954 0,-13.3945312 1.856564,-1.8565639 4.275166,-2.7776594 6.697265,-2.7773438 z m -29.158203,2.8574219 0.04883,2.4199219 -1.234375,-1.234375 z m 59.736328,0.7617187 1.394532,1.3964844 -1.341797,1.3417969 z M 18.986328,2.8261719 19.042969,5.65625 17.599609,4.2128906 Z m 59.742188,1.0175781 1.1875,1.1875 -1.142579,1.140625 z m -20.513672,22.625 -19.570313,0.382812 c -0.410496,0.0081 -0.80048,0.179687 -1.085937,0.472657 -0.141923,0.145734 -0.252476,0.31799 -0.328125,0.505859 -0.233976,0.581356 -0.09708,1.242276 0.345703,1.683594 l 4.832031,4.833984 c 0.608442,0.606332 1.594788,0.60305 2.201172,-0.0039 l 3.642578,-3.642578 3.660156,3.660156 c 0.60734,0.607216 1.593785,0.607264 2.201172,0 l 5.236328,-5.234375 c 0.98897,-0.992013 0.266025,-2.684537 -1.134765,-2.658203 z m -3.808594,3.193359 -1.392578,1.392578 -1.339844,-1.33789 z m -9.708984,0.191407 -1.1875,1.1875 -1.142579,-1.142579 z"
     id="path12773"
     inkscape:path-effect="#path-effect12853"
     inkscape:original-d="m 26.168565,-21.800995 c -0.169795,0.169345 -0.277315,0.400733 -0.277315,0.649549 l -4e-6,42.283787 c 0,0.497629 0.430247,0.92585 0.927878,0.92585 l 42.281761,3e-6 c 0.497629,0 0.926188,-0.428558 0.926188,-0.926188 l 4e-6,-42.283112 c 0,-0.49763 -0.428559,-0.926188 -0.926189,-0.926188 l -42.281761,-3e-6 c -0.248815,0 -0.480765,0.106958 -0.650562,0.276302 z m 1.54635,1.547026 40.488833,3e-6 -3e-6,40.488832 -40.488832,-3e-6 z M 14.749287,-6.0865267 a 0.91139019,0.91139019 45 0 0 0,1.2896382 l 4.173253,4.1732536 -4.191156,4.1911552 a 0.91139019,0.91139019 45 0 0 0.0014,1.2882872 l 5.315958,5.3159585 A 0.91139019,0.91139019 45 0 0 21.603861,9.5103958 L 21.213016,-10.366855 a 0.91139019,0.91139019 45 0 0 -1.555131,-0.628269 z m 23.6195,-22.7405983 a 0.91139019,0.91139019 45 0 0 0.663735,1.554795 l 19.877251,-0.390808 a 0.91139019,0.91139019 45 0 0 0.625566,-1.554457 l -4.908934,-4.908935 a 0.91139019,0.91139019 45 0 0 -1.286599,-3.38e-4 l -4.174942,4.174942 -4.191155,-4.191156 a 0.91139019,0.91139019 45 0 0 -1.288963,0 z m -21.687745,23.3854175 2.752557,-2.7525567 0.109778,5.6148918 z m 24.577778,-23.6968485 3.071758,-3.071757 2.952859,2.95286 z m -10.452894,11.975598 c -0.181334,0.181334 -0.296231,0.428957 -0.296231,0.694811 l -3e-6,32.917189 c 0,0.531707 0.459336,0.991042 0.991042,0.991042 l 32.91719,3e-6 c 0.531705,0 0.991042,-0.459336 0.991042,-0.991043 l 2e-6,-32.917189 c 0,-0.531707 -0.459336,-0.991043 -0.991042,-0.991043 l -32.917189,-2e-6 c -0.265854,0 -0.513477,0.114898 -0.694811,0.296232 z m 1.660857,1.660857 30.985097,2e-6 -3e-6,30.985097 -30.985096,-2e-6 z M 16.665842,4.2123396 19.618702,1.2594803 19.73591,7.2824086 Z m 34.456448,-33.5451176 2.860984,-2.860984 2.751206,2.751206 z M 39.411508,-8.5580502 c -4.712559,4.712559 -4.71256,12.3844351 0,17.0969961 4.712559,4.7125611 12.383085,4.7112091 17.095645,-0.00135 4.712559,-4.7125598 4.712561,-12.3817329 0,-17.094294 -4.712559,-4.7125609 -12.383084,-4.7139119 -17.095645,-0.00135 z m 1.383878,1.3838785 c 3.964841,-3.9648393 10.363049,-3.9634883 14.327889,0.00135 3.96484,3.9648406 3.964838,10.3616977 -10e-7,14.3265371 -3.96484,3.9648386 -10.363048,3.9661906 -14.327889,0.00135 -3.964838,-3.9648399 -3.964837,-10.3644005 10e-7,-14.3292392 z M 38.033369,27.785564 a 0.89719473,0.89719473 45 0 0 -0.189493,0.290827 0.89719473,0.89719473 45 0 0 0.198952,0.970438 l 4.832258,4.83226 a 0.89719473,0.89719473 45 0 0 1.268021,-0.0014 l 4.109413,-4.109413 4.125964,4.125965 a 0.89719473,0.89719473 45 0 0 1.268696,0 l 5.233203,-5.233202 a 0.89719473,0.89719473 45 0 0 -0.65225,-1.530473 L 38.65826,27.51463 a 0.89719473,0.89719473 45 0 0 -0.624891,0.270899 z M 76.26044,-10.330034 a 0.89719473,0.89719473 45 0 0 -0.255023,0.6434679 L 76.39082,9.8819556 A 0.89719473,0.89719473 45 0 0 77.921633,10.49874 L 82.753892,5.6664807 A 0.89719473,0.89719473 45 0 0 82.753555,4.3974468 L 78.645493,0.28938454 82.770444,-3.8355661 a 0.89719473,0.89719473 45 0 0 -3.37e-4,-1.2690338 l -5.232865,-5.2328651 a 0.89719473,0.89719473 45 0 0 -0.9853,-0.19152 0.89719473,0.89719473 45 0 0 -0.291502,0.198951 z m -35.458638,39.597771 5.52403,-0.108765 -2.816398,2.816397 z m 37.040454,-36.7621201 3.024469,3.0244688 -2.906923,2.9069216 z M 50.106248,29.083986 56.036288,28.96779 53.01317,31.990907 Z M 78.033776,2.2157353 80.850173,5.0321326 78.14254,7.7397647 Z"
     transform="rotate(44.999996)" />
</svg>
